<svg width="20" height="20" viewBox="0 0 20 20" fill="none" xmlns="http://www.w3.org/2000/svg">
<mask id="path-1-inside-1_1811_4876" fill="white">
<path d="M16 0C18.2091 0 20 1.79086 20 4V16C20 18.2091 18.2091 20 16 20H4C1.79086 20 3.22133e-08 18.2091 0 16V4C0 1.79086 1.79086 3.22128e-08 4 0H16Z"/>
</mask>
<path d="M20 4H20.5H20ZM16 20V20.5V20ZM0 16H-0.5H0ZM4 0V-0.5V0ZM16 0V0.5C17.933 0.5 19.5 2.067 19.5 4H20H20.5C20.5 1.51472 18.4853 -0.5 16 -0.5V0ZM20 4H19.5V16H20H20.5V4H20ZM20 16H19.5C19.5 17.933 17.933 19.5 16 19.5V20V20.5C18.4853 20.5 20.5 18.4853 20.5 16H20ZM16 20V19.5H4V20V20.5H16V20ZM4 20V19.5C2.067 19.5 0.5 17.933 0.5 16H0H-0.5C-0.5 18.4853 1.51472 20.5 4 20.5V20ZM0 16H0.5V4H0H-0.5V16H0ZM0 4H0.5C0.5 2.067 2.067 0.5 4 0.5V0V-0.5C1.51472 -0.5 -0.5 1.51472 -0.5 4H0ZM4 0V0.5H16V0V-0.5H4V0Z" fill="white" mask="url(#path-1-inside-1_1811_4876)"/>
<g clip-path="url(#clip0_1811_4876)">
<path d="M5.05469 5.40625H5.40625V5.05469C5.40625 4.47313 5.87938 4 6.46094 4C7.04249 4 7.51562 4.47313 7.51562 5.05469V5.40625H8.92188V5.05469C8.92188 4.47313 9.39501 4 9.97656 4C10.5581 4 11.0312 4.47313 11.0312 5.05469V5.40625H12.4844V5.05469C12.4844 4.47313 12.9575 4 13.5391 4C14.1206 4 14.5938 4.47313 14.5938 5.05469V5.40625H14.9453C15.5269 5.40625 16 5.87938 16 6.46094C16 6.51194 16 14.8105 16 14.9453C16 15.5269 15.5269 16 14.9453 16H5.05469C4.47313 16 4 15.5269 4 14.9453C4 14.8806 4 6.57517 4 6.46094C4 5.87938 4.47313 5.40625 5.05469 5.40625ZM6.8125 5.05469C6.8125 4.86084 6.65479 4.70312 6.46094 4.70312C6.26709 4.70312 6.10938 4.86084 6.10938 5.05469V6.46094C6.10938 6.65479 6.26709 6.8125 6.46094 6.8125C6.65479 6.8125 6.8125 6.65479 6.8125 6.46094V5.05469ZM10.3281 5.05469C10.3281 4.86084 10.1704 4.70312 9.97656 4.70312C9.78271 4.70312 9.625 4.86084 9.625 5.05469V6.46094C9.625 6.65479 9.78271 6.8125 9.97656 6.8125C10.1704 6.8125 10.3281 6.65479 10.3281 6.46094V5.05469ZM13.8906 5.05469C13.8906 4.86084 13.7329 4.70312 13.5391 4.70312C13.3452 4.70312 13.1875 4.86084 13.1875 5.05469V6.46094C13.1875 6.65479 13.3452 6.8125 13.5391 6.8125C13.7329 6.8125 13.8906 6.65479 13.8906 6.46094V5.05469ZM4.70312 14.9453C4.70312 15.1392 4.86084 15.2969 5.05469 15.2969H14.9453C15.1392 15.2969 15.2969 15.1392 15.2969 14.9453V8.96875H4.70312V14.9453ZM4.70312 8.26562H15.2969V6.46094C15.2969 6.26709 15.1392 6.10938 14.9453 6.10938H14.5938V6.46094C14.5938 7.04249 14.1206 7.51562 13.5391 7.51562C12.9575 7.51562 12.4844 7.04249 12.4844 6.46094V6.10938H11.0312V6.46094C11.0312 7.04249 10.5581 7.51562 9.97656 7.51562C9.39501 7.51562 8.92188 7.04249 8.92188 6.46094V6.10938H7.51562V6.46094C7.51562 7.04249 7.04249 7.51562 6.46094 7.51562C5.87938 7.51562 5.40625 7.04249 5.40625 6.46094V6.10938H5.05469C4.86084 6.10938 4.70312 6.26709 4.70312 6.46094V8.26562Z" fill="white"/>
<path d="M5.75781 9.67188H14.2422C14.4363 9.67188 14.5938 9.82928 14.5938 10.0234V14.2422C14.5938 14.4363 14.4363 14.5938 14.2422 14.5938H5.75781C5.56366 14.5938 5.40625 14.4363 5.40625 14.2422V10.0234C5.40625 9.82928 5.56366 9.67188 5.75781 9.67188ZM12.4844 13.8906H13.8906V12.4844H12.4844V13.8906ZM12.4844 11.7812H13.8906V10.375H12.4844V11.7812ZM10.3281 13.8906H11.7812V12.4844H10.3281V13.8906ZM10.3281 11.7812H11.7812V10.375H10.3281V11.7812ZM8.21875 13.8906H9.625V12.4844H8.21875V13.8906ZM8.21875 11.7812H9.625V10.375H8.21875V11.7812ZM6.10938 13.8906H7.51562V12.4844H6.10938V13.8906ZM6.10938 11.7812H7.51562V10.375H6.10938V11.7812Z" fill="white"/>
</g>
<defs>
<clipPath id="clip0_1811_4876">
<rect width="12" height="12" fill="white" transform="matrix(-1 0 0 1 16 4)"/>
</clipPath>
</defs>
</svg>
