<svg width="20" height="20" viewBox="0 0 20 20" fill="none" xmlns="http://www.w3.org/2000/svg">
<mask id="path-1-inside-1_1811_4868" fill="white">
<path d="M16 0C18.2091 0 20 1.79086 20 4V16C20 18.2091 18.2091 20 16 20H4C1.79086 20 3.22133e-08 18.2091 0 16V4C0 1.79086 1.79086 3.22128e-08 4 0H16Z"/>
</mask>
<path d="M20 4H20.5H20ZM16 20V20.5V20ZM0 16H-0.5H0ZM4 0V-0.5V0ZM16 0V0.5C17.933 0.5 19.5 2.067 19.5 4H20H20.5C20.5 1.51472 18.4853 -0.5 16 -0.5V0ZM20 4H19.5V16H20H20.5V4H20ZM20 16H19.5C19.5 17.933 17.933 19.5 16 19.5V20V20.5C18.4853 20.5 20.5 18.4853 20.5 16H20ZM16 20V19.5H4V20V20.5H16V20ZM4 20V19.5C2.067 19.5 0.5 17.933 0.5 16H0H-0.5C-0.5 18.4853 1.51472 20.5 4 20.5V20ZM0 16H0.5V4H0H-0.5V16H0ZM0 4H0.5C0.5 2.067 2.067 0.5 4 0.5V0V-0.5C1.51472 -0.5 -0.5 1.51472 -0.5 4H0ZM4 0V0.5H16V0V-0.5H4V0Z" fill="white" mask="url(#path-1-inside-1_1811_4868)"/>
<path d="M15.4546 10.5454H4.54559C4.31392 10.5454 4.10756 10.6917 4.0309 10.9103C3.95421 11.1289 4.024 11.3721 4.20487 11.5168L9.65952 15.8804C9.75912 15.9601 9.87971 15.9999 10.0003 15.9999C10.1208 15.9999 10.2414 15.9601 10.341 15.8804L15.7954 11.5168C15.9762 11.3721 16.046 11.1289 15.9693 10.9103C15.8927 10.6917 15.6863 10.5454 15.4546 10.5454ZM10.0003 14.7559L6.1006 11.6363H13.8997L10.0003 14.7559Z" fill="white"/>
<path d="M4.54551 9.45474H15.4545C15.6862 9.45474 15.8926 9.30841 15.9692 9.08983C16.0459 8.87125 15.9761 8.62805 15.7953 8.48336L10.3406 4.11975C10.1414 3.96041 9.85835 3.96041 9.65911 4.11975L4.20475 8.48336C4.02387 8.62805 3.95409 8.87125 4.03078 9.08983C4.10747 9.30841 4.31387 9.45474 4.54551 9.45474ZM9.99987 5.24418L13.8995 8.3638H6.10044L9.99987 5.24418Z" fill="white"/>
</svg>
